<svg width="100" height="100" viewBox="0 0 100 100" fill="none" xmlns="http://www.w3.org/2000/svg">
<mask id="mask0_9_342" style="mask-type:luminance" maskUnits="userSpaceOnUse" x="0" y="0" width="100" height="100">
<path d="M100 0H0V100H100V0Z" fill="white"/>
</mask>
<g mask="url(#mask0_9_342)">
<path d="M36.769 71.8748C31.971 69.0064 28.2472 64.6442 26.1684 59.4577C24.0895 54.2711 23.7705 48.5465 25.2602 43.1613C26.7499 37.7761 29.9664 33.0277 34.4159 29.6447C38.8657 26.2616 44.3028 24.4304 49.8939 24.4318H49.9769V6.6228e-09H49.8939C39.1828 -0.000174212 28.7546 3.43688 20.1455 9.80497C11.5363 16.173 5.20106 25.1356 2.0729 35.3723C-1.05528 45.6093 -0.811054 56.5795 2.76959 66.6671C6.35024 76.7549 13.0781 85.427 21.9621 91.4062L21.82 91.2995L36.769 71.8748Z" fill="#B2D5F2"/>
<path d="M49.7178 0V24.4318C50.46 24.4318 51.1945 24.4673 51.921 24.5383C52.0721 22.6304 52.7003 20.7909 53.7482 19.1888C54.7962 17.5868 56.2301 16.2736 57.9184 15.3698C59.6067 14.466 61.4953 14.0006 63.4105 14.0163C65.3257 14.032 67.2062 14.5284 68.8795 15.4598C70.5525 16.3913 71.9648 17.7279 72.9861 19.3469C74.0076 20.966 74.6055 22.8155 74.725 24.7257C74.8446 26.6358 74.4819 28.5454 73.6704 30.2792C72.8588 32.0127 71.6242 33.5146 70.0803 34.6473C72.9194 38.4354 74.6488 42.9374 75.0757 47.6508C75.5029 52.3642 74.6105 57.1036 72.4983 61.3396C70.3861 65.5756 67.1373 69.1415 63.1147 71.6395C59.0921 74.1372 54.4538 75.4688 49.7178 75.4853V99.9289C62.9786 99.9289 75.6964 94.6649 85.0732 85.2946C94.4501 75.9245 99.7178 63.2158 99.7178 49.9644C99.7178 36.7131 94.4501 24.0044 85.0732 14.6342C75.6964 5.2641 62.9786 0 49.7178 0Z" fill="#75A8D8"/>
</g>
<path d="M24.8944 60.5355L20.913 44.087C20.8777 43.9198 20.8066 43.7735 20.7103 43.6697C20.6141 43.5658 20.4975 43.5098 20.3779 43.5098C20.2582 43.5098 20.1417 43.5658 20.0454 43.6697C19.9491 43.7735 19.8781 43.9198 19.8427 44.087L15.8649 60.5355H13.2356L17.6309 42.522C17.8131 41.6968 18.1834 40.988 18.6797 40.5135C19.1914 40.0573 19.7823 39.8272 20.3814 39.851C20.9817 39.8268 21.5738 40.0569 22.0867 40.5135C22.5831 40.988 22.9533 41.6968 23.1356 42.522L27.5237 60.5355H24.8944Z" fill="#F6F6F6"/>
<path d="M30.0494 54.3538C30.0494 52.3505 30.449 50.8446 31.2481 49.836C32.0473 48.8275 33.1318 48.3215 34.5017 48.318H37.4806C37.695 48.3233 37.9078 48.2635 38.1056 48.1422C38.3033 48.021 38.4817 47.841 38.6294 47.6137C38.7832 47.3869 38.9041 47.117 38.985 46.8204C39.0659 46.5237 39.1051 46.2063 39.1003 45.887C39.1017 45.5706 39.0567 45.2575 38.9683 44.9688C38.8796 44.6873 38.759 44.4298 38.6116 44.2071C38.4689 43.9867 38.298 43.8095 38.1085 43.6855C37.9166 43.5535 37.707 43.4858 37.4949 43.4872H30.0494V39.8355H37.1096C37.7948 39.8126 38.477 39.9753 39.1217 40.3154C39.646 40.6079 40.1198 41.0656 40.5095 41.6561C40.8674 42.2123 41.1399 42.874 41.3086 43.5968C41.6438 45.0611 41.6513 46.6435 41.3301 48.1145C41.172 48.8336 40.9091 49.494 40.5594 50.05C40.171 50.6503 39.699 51.1217 39.1752 51.4324C38.5171 51.8045 37.815 51.9818 37.1096 51.954H34.2556L41.8901 56.8735V60.8643L32.5325 54.698V60.5356H30.0352L30.0494 54.3538Z" fill="#F6F6F6"/>
<path d="M50.2918 60.5353C46.0107 60.5353 43.8701 57.0922 43.8701 50.2061V50.1174C43.8844 43.273 46.0335 39.8508 50.317 39.8508H55.4467V43.5026H49.6747C48.5518 43.5026 47.7198 44.0433 47.1775 45.125C46.6353 46.2066 46.3581 47.9177 46.3461 50.2582C46.3461 54.7238 47.4547 56.9548 49.6713 56.9514H52.6284C52.8358 56.9511 53.0398 56.8797 53.2244 56.7427C53.4107 56.6056 53.5781 56.4179 53.7164 56.1897C53.8558 55.9526 53.9667 55.6827 54.045 55.3916C54.1621 54.9441 54.1953 54.4588 54.1404 53.9863C54.0861 53.5138 53.9455 53.0713 53.7347 52.7049C53.6004 52.4677 53.4313 52.2782 53.2393 52.1507C53.0478 52.0233 52.8393 51.9613 52.6284 51.9694H50.3918V48.3177H52.7501C53.277 48.3116 53.7987 48.4698 54.2804 48.7819C54.7461 49.0877 55.1644 49.5277 55.5113 50.0757C55.8724 50.6508 56.1547 51.3221 56.3421 52.0528C56.553 52.8532 56.6581 53.7046 56.653 54.5621C56.653 55.3225 56.5438 56.0744 56.3318 56.7688C56.1158 57.4747 55.8164 58.1193 55.4467 58.6729C55.0884 59.2297 54.6644 59.6873 54.1947 60.0241C53.7318 60.364 53.2215 60.5426 52.7033 60.5457L50.2918 60.5353Z" fill="#F6F6F6"/>
<path d="M71.3724 52.6997C71.3866 53.7935 71.2655 54.8821 71.0158 55.9132C70.7804 56.8477 70.4004 57.6902 69.9061 58.3756C69.3706 59.0917 68.7369 59.634 68.0478 59.9667C67.2049 60.3697 66.3221 60.5619 65.4364 60.5353C64.5655 60.559 63.6981 60.3667 62.8712 59.9667C62.1792 59.6217 61.5444 59.0711 61.0049 58.3495C60.5009 57.6589 60.1084 56.8123 59.8564 55.8715C59.5929 54.8733 59.4609 53.8113 59.4678 52.7415V39.8508H61.9649V52.6371C61.9501 53.2222 62.0249 53.8047 62.1844 54.3419C62.3432 54.879 62.5832 55.3572 62.8855 55.7411C63.5061 56.5445 64.3729 56.9409 65.4826 56.9409H65.5432C66.6524 56.9409 67.4872 56.5445 68.0404 55.7411C68.3198 55.3391 68.5392 54.8564 68.6838 54.3238C68.8289 53.7912 68.8964 53.2204 68.8826 52.6476V39.8508H71.3798L71.3724 52.6997Z" fill="#F6F6F6"/>
<path d="M86.6667 54.5C86.6667 56.5032 86.273 58.0091 85.4856 59.0177C84.6987 60.0263 83.6045 60.5323 82.2039 60.5358H74.9262V56.931H82.6639C82.8713 56.9366 83.077 56.8734 83.2656 56.746C83.4542 56.6185 83.6205 56.4304 83.7519 56.1955C84.041 55.6985 84.1947 55.0634 84.1839 54.4113C84.1879 53.7782 84.0347 53.1645 83.7519 52.6845C83.6205 52.4496 83.4542 52.2615 83.2656 52.134C83.077 52.0066 82.8713 51.9434 82.6639 51.949H78.6827C77.9707 51.9845 77.2622 51.807 76.5993 51.4273C76.073 51.1085 75.6027 50.622 75.2222 50.0031C74.8799 49.442 74.621 48.7829 74.4622 48.0677C74.3079 47.3842 74.2285 46.6695 74.2267 45.9497C74.2222 45.1513 74.3056 44.357 74.473 43.597C74.6347 42.872 74.9056 42.2089 75.265 41.6563C75.6542 41.0724 76.1267 40.6217 76.649 40.3365C77.301 39.9947 77.9902 39.832 78.6827 39.8565H85.7427V43.5083H78.2793C78.0673 43.5069 77.8576 43.5745 77.6656 43.7065C77.4765 43.8305 77.3056 44.0078 77.1627 44.2282C77.0142 44.4495 76.8936 44.7073 76.8062 44.9898C76.7165 45.2782 76.6702 45.5913 76.6702 45.908C76.6662 46.2276 76.7062 46.5452 76.7879 46.8419C76.869 47.1385 76.9907 47.4081 77.145 47.6347C77.2925 47.8623 77.4707 48.0425 77.6685 48.1637C77.8662 48.285 78.0793 48.3446 78.2936 48.339H82.2182C83.5879 48.339 84.669 48.845 85.461 49.857C86.253 50.8691 86.6502 52.375 86.6525 54.3748L86.6667 54.5Z" fill="#F6F6F6"/>
<path opacity="0.7" d="M24.8944 60.5355L20.913 44.087C20.8777 43.9198 20.8066 43.7735 20.7103 43.6697C20.6141 43.5658 20.4975 43.5098 20.3779 43.5098C20.2582 43.5098 20.1417 43.5658 20.0454 43.6697C19.9491 43.7735 19.8781 43.9198 19.8427 44.087L15.8471 60.5355H13.2356L17.6309 42.522C17.8131 41.6968 18.1834 40.988 18.6797 40.5135C19.1914 40.0573 19.7823 39.8272 20.3814 39.851C20.9817 39.8268 21.5738 40.0569 22.0867 40.5135C22.5831 40.988 22.9533 41.6968 23.1356 42.522L27.5237 60.5355H24.8944Z" fill="#F6F6F6"/>
<path d="M30.0494 54.3538C30.0494 52.3505 30.449 50.8429 31.2481 49.8308C32.0473 48.8188 33.1318 48.3145 34.5017 48.318H37.4806C37.695 48.3233 37.9078 48.2635 38.1056 48.1422C38.3033 48.021 38.4817 47.841 38.6294 47.6137C38.7832 47.3869 38.9041 47.117 38.985 46.8204C39.0659 46.5237 39.1051 46.2063 39.1003 45.887C39.1017 45.5706 39.0567 45.2575 38.9683 44.9688C38.8796 44.6873 38.759 44.4298 38.6116 44.2071C38.4689 43.9867 38.298 43.8095 38.1085 43.6855C37.9153 43.5536 37.7046 43.4859 37.4913 43.4872H30.0494V39.8355H37.1096C37.7948 39.8126 38.477 39.9753 39.1217 40.3154C39.6454 40.6067 40.1182 41.0647 40.506 41.6561C40.8661 42.2108 41.14 42.8728 41.3086 43.5968C41.483 44.3547 41.5698 45.1499 41.5655 45.9495C41.5641 46.6846 41.4846 47.415 41.3301 48.1145C41.172 48.8336 40.9091 49.494 40.5594 50.05C40.1705 50.6518 39.697 51.1234 39.1717 51.4324C38.5148 51.8046 37.8138 51.982 37.1096 51.954H34.2556L41.8901 56.8735V60.8643L32.5325 54.698V60.5356H30.0352L30.0494 54.3538Z" fill="#F6F6F6"/>
<path d="M50.2884 60.5353C46.0073 60.5353 43.8667 57.0922 43.8667 50.2061V50.1174C43.881 43.273 46.0301 39.8508 50.3136 39.8508H55.4473V43.5026H49.6747C48.5524 43.5026 47.7198 44.0433 47.1776 45.125C46.6353 46.2066 46.3581 47.9177 46.3461 50.2582C46.3461 54.7238 47.4547 56.9548 49.6713 56.9514H52.6284C52.8358 56.9511 53.0398 56.8797 53.2244 56.7427C53.4107 56.6056 53.5781 56.4179 53.717 56.1897C53.8558 55.9526 53.9673 55.6827 54.045 55.3916C54.1621 54.9441 54.1953 54.4588 54.1404 53.9863C54.0861 53.5138 53.9456 53.0713 53.7347 52.7049C53.6004 52.4677 53.4313 52.2782 53.2398 52.1507C53.0478 52.0233 52.8393 51.9613 52.6284 51.9694H50.3918V48.3177H52.7501C53.277 48.3122 53.7987 48.4705 54.2804 48.7819C54.7461 49.0877 55.165 49.5277 55.5113 50.0757C55.8724 50.6508 56.1547 51.3221 56.3427 52.0528C56.553 52.8532 56.6581 53.7046 56.653 54.5621C56.653 55.3225 56.5438 56.0744 56.3318 56.7688C56.1158 57.4747 55.8164 58.1193 55.4473 58.6729C55.0884 59.2297 54.6644 59.6873 54.1947 60.0241C53.7318 60.364 53.2216 60.5426 52.7038 60.5457L50.2884 60.5353Z" fill="#F6F6F6"/>
<g opacity="0.07" filter="url(#filter0_dd_9_342)">
<path d="M71.3724 52.6997C71.3866 53.7935 71.2655 54.8821 71.0158 55.9132C70.7804 56.8477 70.4004 57.6902 69.9061 58.3756C69.3706 59.0917 68.7369 59.634 68.0478 59.9667C67.2049 60.3697 66.3221 60.5619 65.4364 60.5353C64.5655 60.559 63.6981 60.3667 62.8712 59.9667C62.1792 59.6217 61.5444 59.0711 61.0049 58.3495C60.5009 57.6589 60.1084 56.8123 59.8564 55.8715C59.5929 54.8733 59.4609 53.8113 59.4678 52.7415V39.8508H61.9649V52.6371C61.9501 53.2222 62.0249 53.8047 62.1844 54.3419C62.3432 54.879 62.5832 55.3572 62.8855 55.7411C63.5061 56.5445 64.3729 56.9409 65.4826 56.9409H65.5432C66.6524 56.9409 67.4872 56.5445 68.0404 55.7411C68.3198 55.3391 68.5392 54.8564 68.6838 54.3238C68.8289 53.7912 68.8964 53.2204 68.8826 52.6476V39.8508H71.3798L71.3724 52.6997Z" fill="#F6F6F6"/>
</g>
<path d="M86.6667 54.5C86.6667 56.5032 86.273 58.0091 85.4856 59.0177C84.6987 60.0263 83.6045 60.5323 82.2039 60.5358H74.9262V56.931H82.6639C82.8713 56.9366 83.077 56.8734 83.2656 56.746C83.4542 56.6185 83.6205 56.4304 83.7519 56.1955C84.0405 55.698 84.1942 55.0632 84.1839 54.4113C84.1879 53.7782 84.0347 53.1645 83.7519 52.6845C83.6205 52.4496 83.4542 52.2615 83.2656 52.134C83.077 52.0066 82.8713 51.9434 82.6639 51.949H78.6827C77.9707 51.9845 77.2622 51.807 76.5993 51.4273C76.0742 51.1067 75.6039 50.6204 75.2222 50.0031C74.8799 49.442 74.621 48.7829 74.4622 48.0677C74.3079 47.3842 74.2285 46.6695 74.2267 45.9497C74.2222 45.1513 74.3056 44.357 74.473 43.597C74.6347 42.872 74.9056 42.2089 75.265 41.6563C75.6542 41.0724 76.1267 40.6217 76.649 40.3365C77.301 39.9947 77.9902 39.832 78.6827 39.8565H85.7427V43.5083H78.2793C78.0673 43.5069 77.8576 43.5745 77.6656 43.7065C77.4765 43.8305 77.3056 44.0078 77.1627 44.2282C77.0142 44.4495 76.8936 44.7073 76.8062 44.9898C76.7165 45.2782 76.6702 45.5913 76.6702 45.908C76.6662 46.2276 76.7062 46.5452 76.7879 46.8419C76.869 47.1385 76.9907 47.4081 77.145 47.6347C77.2925 47.8623 77.4707 48.0425 77.6685 48.1637C77.8662 48.285 78.0793 48.3446 78.2936 48.339H82.2182C83.5879 48.339 84.669 48.845 85.461 49.857C86.253 50.8691 86.6502 52.375 86.6525 54.3748L86.6667 54.5Z" fill="#F6F6F6"/>
<defs>
<filter id="filter0_dd_9_342" x="55.4675" y="39.8508" width="19.9124" height="28.6869" filterUnits="userSpaceOnUse" color-interpolation-filters="sRGB">
<feFlood flood-opacity="0" result="BackgroundImageFix"/>
<feColorMatrix in="SourceAlpha" type="matrix" values="0 0 0 0 0 0 0 0 0 0 0 0 0 0 0 0 0 0 127 0" result="hardAlpha"/>
<feOffset dy="4"/>
<feGaussianBlur stdDeviation="2"/>
<feComposite in2="hardAlpha" operator="out"/>
<feColorMatrix type="matrix" values="0 0 0 0 0 0 0 0 0 0 0 0 0 0 0 0 0 0 0.25 0"/>
<feBlend mode="normal" in2="BackgroundImageFix" result="effect1_dropShadow_9_342"/>
<feColorMatrix in="SourceAlpha" type="matrix" values="0 0 0 0 0 0 0 0 0 0 0 0 0 0 0 0 0 0 127 0" result="hardAlpha"/>
<feOffset dy="4"/>
<feGaussianBlur stdDeviation="2"/>
<feComposite in2="hardAlpha" operator="out"/>
<feColorMatrix type="matrix" values="0 0 0 0 0 0 0 0 0 0 0 0 0 0 0 0 0 0 0.25 0"/>
<feBlend mode="normal" in2="effect1_dropShadow_9_342" result="effect2_dropShadow_9_342"/>
<feBlend mode="normal" in="SourceGraphic" in2="effect2_dropShadow_9_342" result="shape"/>
</filter>
</defs>
</svg>
