<svg width="100" height="100" viewBox="0 0 100 100" fill="none" xmlns="http://www.w3.org/2000/svg">
<mask id="mask0_9_344" style="mask-type:luminance" maskUnits="userSpaceOnUse" x="0" y="0" width="100" height="100">
<path d="M100 0H0V100H100V0Z" fill="white"/>
</mask>
<g mask="url(#mask0_9_344)">
<path d="M36.769 71.8748C31.971 69.0064 28.2472 64.6442 26.1684 59.4577C24.0895 54.2711 23.7705 48.5465 25.2602 43.1613C26.7499 37.7761 29.9664 33.0277 34.4159 29.6447C38.8657 26.2616 44.3028 24.4304 49.8939 24.4318H49.9769V6.6228e-09H49.8939C39.1828 -0.000174212 28.7546 3.43688 20.1455 9.80497C11.5363 16.173 5.20106 25.1356 2.0729 35.3723C-1.05528 45.6093 -0.811054 56.5795 2.76959 66.6671C6.35024 76.7549 13.0781 85.427 21.9621 91.4062L21.82 91.2995L36.769 71.8748Z" fill="#B2D5F2"/>
<path d="M49.7178 0V24.4318C50.46 24.4318 51.1945 24.4673 51.921 24.5383C52.0721 22.6304 52.7003 20.7909 53.7482 19.1888C54.7962 17.5868 56.2301 16.2736 57.9184 15.3698C59.6067 14.466 61.4953 14.0006 63.4105 14.0163C65.3257 14.032 67.2062 14.5284 68.8795 15.4598C70.5525 16.3913 71.9648 17.7279 72.9861 19.3469C74.0076 20.966 74.6055 22.8155 74.725 24.7257C74.8446 26.6358 74.4819 28.5454 73.6704 30.2792C72.8588 32.0127 71.6242 33.5146 70.0803 34.6473C72.9194 38.4354 74.6488 42.9374 75.0757 47.6508C75.5029 52.3642 74.6105 57.1036 72.4983 61.3396C70.3861 65.5756 67.1373 69.1415 63.1147 71.6395C59.0921 74.1372 54.4538 75.4688 49.7178 75.4853V99.9289C62.9786 99.9289 75.6964 94.6649 85.0732 85.2946C94.4501 75.9245 99.7178 63.2158 99.7178 49.9644C99.7178 36.7131 94.4501 24.0044 85.0732 14.6342C75.6964 5.2641 62.9786 0 49.7178 0Z" fill="#75A8D8"/>
</g>
</svg>